<svg width="48" height="36" viewBox="0 0 48 36" fill="none" xmlns="http://www.w3.org/2000/svg">
<path d="M10.7272 11.9323C11.2085 7.42049 11.4491 5.16458 12.5704 3.51069C13.3005 2.43384 14.2822 1.5513 15.4304 0.939555C17.1939 0 19.4626 0 24 0C28.5374 0 30.8061 0 32.5696 0.939555C33.7178 1.5513 34.6995 2.43384 35.4296 3.51069C36.5509 5.16458 36.7915 7.42049 37.2728 11.9323L37.9559 18.3368C38.1767 20.4069 38.2871 21.442 38.6519 22.4046C39.0166 23.3671 39.6199 24.2155 40.8264 25.9121L45.7536 32.841C46.7378 34.225 47.2299 34.917 46.9505 35.4585C46.6711 36 45.822 36 44.1237 36H3.87634C2.17802 36 1.32886 36 1.04949 35.4585C0.770109 34.917 1.26222 34.225 2.24643 32.841L7.17362 25.9121C8.38011 24.2155 8.98336 23.3671 9.34811 22.4046C9.71286 21.442 9.82327 20.4069 10.0441 18.3368L10.7272 11.9323Z" fill="#F56904"/>
</svg>
