<svg width="50" height="50" viewBox="0 0 50 50" fill="none" xmlns="http://www.w3.org/2000/svg">
<path fill-rule="evenodd" clip-rule="evenodd" d="M0 25C0 11.1929 11.1929 0 25 0C38.8071 0 50 11.1929 50 25C50 33.1074 46.1408 40.3135 40.1591 44.8813C39.1465 41.8822 37.2637 39.2427 34.7402 37.3064C31.9459 35.1622 28.5222 34 25 34C21.4779 34 18.0541 35.1622 15.2598 37.3063C12.7363 39.2427 10.8535 41.8821 9.84087 44.8813C3.85923 40.3135 0 33.1074 0 25ZM33.5227 38.8931C35.887 40.7073 37.6086 43.227 38.4409 46.0831C34.5594 48.5628 29.9475 50 25 50C20.0525 50 15.4406 48.5628 11.5591 46.0831C12.3914 43.227 14.113 40.7073 16.4773 38.8931C18.9224 37.0169 21.9181 36 25 36C28.0819 36 31.0776 37.0169 33.5227 38.8931ZM18 16.5C18 12.9101 20.9101 10 24.5 10C28.0899 10 31 12.9101 31 16.5C31 20.0899 28.0899 23 24.5 23C20.9101 23 18 20.0899 18 16.5ZM24.5 8C19.8056 8 16 11.8056 16 16.5C16 21.1944 19.8056 25 24.5 25C29.1944 25 33 21.1944 33 16.5C33 11.8056 29.1944 8 24.5 8Z" fill="#F56904"/>
</svg>
