<svg width="39" height="36" viewBox="0 0 39 36" fill="none" xmlns="http://www.w3.org/2000/svg">
<path fill-rule="evenodd" clip-rule="evenodd" d="M17.875 27C24.1572 27 29.25 22.299 29.25 16.5C29.25 10.701 24.1572 6 17.875 6C11.5928 6 6.5 10.701 6.5 16.5C6.5 22.299 11.5928 27 17.875 27ZM17.875 9.5C16.9007 9.5 15.9343 9.67706 15.0304 10.0227C14.1264 10.3683 13.3001 10.8768 12.6005 11.5226C11.9008 12.1685 11.341 12.9397 10.9574 13.7945C10.5737 14.6495 10.375 15.5691 10.375 16.5C10.375 17.0523 10.8227 17.5 11.375 17.5C11.9273 17.5 12.375 17.0523 12.375 16.5C12.375 15.855 12.5125 15.2142 12.7821 14.6133C13.0519 14.0122 13.4497 13.4605 13.9571 12.9922C14.4646 12.5237 15.0714 12.1482 15.7447 11.8908C16.418 11.6333 17.1421 11.5 17.875 11.5C18.4273 11.5 18.875 11.0523 18.875 10.5C18.875 9.94772 18.4273 9.5 17.875 9.5Z" fill="black"/>
<path d="M32.5 30L29.25 27" stroke="black" stroke-width="2" stroke-linecap="round"/>
</svg>
